<svg t="1680595046023" class="icon" viewBox="0 0 1024 1024" version="1.1" xmlns="http://www.w3.org/2000/svg" p-id="4666" width="200" height="200"><path d="M512 64C264.64 64 64 264.64 64 512c0 247.424 200.64 448 448 448 247.488 0 448-200.576 448-448C960 264.64 759.488 64 512 64zM512 896.768c-212.48 0-384.768-172.224-384.768-384.768S299.52 127.232 512 127.232 896.64 299.52 896.64 512 724.48 896.768 512 896.768zM388.864 329.664c26.624-28.288 63.168-42.496 109.568-42.496 42.944 0 77.376 12.096 103.168 36.352 25.856 24.192 38.72 55.168 38.72 92.864 0 22.784-4.608 41.344-14.016 55.552-9.344 14.272-28.608 35.136-57.6 62.656C547.648 554.752 533.888 571.712 527.488 585.6c-6.4 13.888-9.536 21.632-9.536 48.832L460.416 634.432c0-30.784 3.648-42.944 11.008-61.76C478.72 553.792 495.04 532.224 520.256 507.904l26.432-25.472c7.936-7.296 14.336-14.976 19.2-22.912 8.96-14.016 13.44-28.544 13.44-43.648 0-21.12-6.464-39.424-19.328-54.912C547.2 345.344 525.888 337.536 496.192 337.536c-36.736 0-62.144 13.376-76.224 40.064C412.032 392.512 407.552 413.952 406.464 441.92L348.928 441.92C348.928 395.456 362.24 358.016 388.864 329.664zM457.344 704l64 0 0 63.68-64 0L457.344 704z" fill="#010101" p-id="4667"></path></svg>