<svg t="1680593735073" class="icon" viewBox="0 0 1024 1024" version="1.1" xmlns="http://www.w3.org/2000/svg" p-id="2195" width="200" height="200"><path d="M780.8 710.4 582.4 505.6l198.4-198.4c19.2-19.2 19.2-51.2 0-70.4-19.2-19.2-51.2-19.2-70.4 0L518.4 441.6 313.6 243.2c-19.2-19.2-51.2-19.2-76.8 0-19.2 19.2-19.2 51.2 0 76.8l198.4 198.4-198.4 198.4c-19.2 19.2-19.2 51.2 0 70.4 19.2 19.2 51.2 19.2 70.4 0l198.4-198.4 198.4 198.4c19.2 19.2 51.2 19.2 76.8 0C806.4 761.6 806.4 729.6 780.8 710.4z" p-id="2196"></path></svg>