<svg t="1680314832404" class="icon" viewBox="0 0 1024 1024" version="1.1" xmlns="http://www.w3.org/2000/svg" p-id="1954" width="200" height="200"><path d="M128.042667 533.248a193.28 193.28 0 0 0 193.237333 193.237333h152.576v-81.408H321.28a111.872 111.872 0 0 1 0-223.786666h152.576V339.925333H321.28a193.28 193.28 0 0 0-193.237333 193.322667zM709.717333 339.754667c-2.346667 0-4.650667 0.085333-6.997333 0.170666h-152.576v76.288h152.576a111.872 111.872 0 0 1 0 223.786667h-152.576v76.288h152.576A193.194667 193.194667 0 0 0 896 523.178667v-0.170667a184.746667 184.746667 0 0 0-186.282667-183.253333z" p-id="1955"></path><path d="M361.941333 492.501333h305.152v76.288H361.941333z" p-id="1956"></path></svg>