<svg t="1680339223072" class="icon" viewBox="0 0 1024 1024" version="1.1" xmlns="http://www.w3.org/2000/svg" p-id="1234" width="200" height="200"><path d="M887.850667 551.68l-132.864-93.184-66.218667 51.114667 83.242667 58.496-259.626667 182.357333-259.797333-182.314667 83.285333-58.496-66.176-51.2-132.778667 93.269334a20.096 20.096 0 0 0 0 32.810666l363.989334 255.616a20.053333 20.053333 0 0 0 22.869333 0l364.074667-255.658666a19.968 19.968 0 0 0 0-32.810667z" p-id="1235"></path><path d="M512.341333 605.653333a39.850667 39.850667 0 0 0 39.850667-39.850666v-263.68l71.509333 71.765333a39.978667 39.978667 0 0 0 56.405334-56.405333l-132.522667-132.992a49.792 49.792 0 0 0-70.357333-0.170667l-0.170667 0.170667-132.48 132.992a39.978667 39.978667 0 0 0 56.405333 56.576l71.509334-71.936v263.68c0 22.016 17.834667 39.850667 39.850666 39.850666z" p-id="1236"></path></svg>