<svg t="1680314766912" class="icon" viewBox="0 0 1024 1024" version="1.1" xmlns="http://www.w3.org/2000/svg" p-id="1661" width="200" height="200"><path d="M512.042667 542.677333a48.341333 48.341333 0 0 0-48.298667 48.384h-0.042667A48.384 48.384 0 0 0 512 639.36h0.128a48.341333 48.341333 0 1 0-0.085333-96.682667zM376.704 542.677333a48.341333 48.341333 0 0 0-48.298667 48.384H328.533333c0 26.624 21.589333 48.213333 48.213334 48.298667h0.042666a48.341333 48.341333 0 1 0-0.085333-96.682667z" p-id="1662"></path><path d="M734.506667 408.32a223.744 223.744 0 0 0-444.842667 0 210.432 210.432 0 0 0 46.378667 415.146667l352-0.170667h7.466666a210.517333 210.517333 0 0 0 38.997334-414.976z m-48.469334 338.346667H336.554667a138.24 138.24 0 0 1-24.362667-273.066667l42.24-9.6 5.12-43.008 1.066667-6.826667a153.6 153.6 0 0 1 304 6.954667l5.12 43.008 42.24 9.6 6.4 1.621333a138.325333 138.325333 0 0 1-32.341334 271.317334z" p-id="1663"></path><path d="M647.381333 542.677333a48.341333 48.341333 0 0 0-48.298666 48.384h-0.042667a48.341333 48.341333 0 0 0 48.384 48.298667h0.042667a48.341333 48.341333 0 1 0-0.085334-96.682667z" p-id="1664"></path></svg>