<svg t="1681894232411" class="icon" viewBox="0 0 1024 1024" version="1.1" xmlns="http://www.w3.org/2000/svg" p-id="2650" width="200" height="200"><path d="M469.333333 597.333333v-85.333333h-42.666666v-85.333333h128v170.666666h42.666666v85.333334h-170.666666v-85.333334h42.666666z m42.666667 256c-187.733333 0-341.333333-153.6-341.333333-341.333333s153.6-341.333333 341.333333-341.333333 341.333333 153.6 341.333333 341.333333-153.6 341.333333-341.333333 341.333333z m0-85.333333c140.8 0 256-115.2 256-256s-115.2-256-256-256-256 115.2-256 256 115.2 256 256 256z m42.666667-469.333333v85.333333h-85.333334V298.666667h85.333334z" p-id="2651"></path></svg>