<svg t="1680314886449" class="icon" viewBox="0 0 1024 1024" version="1.1" xmlns="http://www.w3.org/2000/svg" p-id="2244" width="200" height="200"><path d="M247.466667 735.36L731.136 251.733333 785.066667 305.664 301.44 789.333333zM128 535.253333a584.96 584.96 0 0 0 88.533333 115.2s46.08-53.162667 46.848-53.973333a262.826667 262.826667 0 0 1-53.973333-61.184A339.456 339.456 0 0 1 477.866667 385.578667l77.141333-76.458667h-42.666667A419.84 419.84 0 0 0 128 535.253333zM788.778667 405.76l-57.6 49.664a484.949333 484.949333 0 0 1 77.013333 80.597333 340.522667 340.522667 0 0 1-299.434667 153.301334h-7.936l-69.077333 69.077333a303.744 303.744 0 0 0 80.597333 3.754667 418.133333 418.133333 0 0 0 383.658667-226.133334 501.205333 501.205333 0 0 0-107.221333-130.261333z" p-id="2245"></path></svg>