<svg t="1680314858773" class="icon" viewBox="0 0 1024 1024" version="1.1" xmlns="http://www.w3.org/2000/svg" p-id="2098" width="200" height="200"><path d="M512 273.109333a422.4 422.4 0 0 0-384 230.4 422.4 422.4 0 0 0 384 230.4 422.4 422.4 0 0 0 384-230.4 422.4 422.4 0 0 0-384-230.4z m7.936 384a344.064 344.064 0 0 1-296.106667-153.6 344.064 344.064 0 0 1 296.106667-153.6 317.781333 317.781333 0 0 1 280.234667 153.6 317.781333 317.781333 0 0 1-280.234667 153.6z" p-id="2099"></path><path d="M512 388.309333a115.2 115.2 0 0 0 0 230.4v-0.085333h4.48a112.938667 112.938667 0 0 0 110.72-115.114667 115.2 115.2 0 0 0-115.2-115.2z m0 153.301334a35.882667 35.882667 0 0 1-38.186667-38.186667 38.186667 38.186667 0 1 1 38.186667 38.186667z" p-id="2100"></path></svg>